<svg width="23" height="21" viewBox="0 0 23 21" fill="none" xmlns="http://www.w3.org/2000/svg">
<path d="M16.2902 0.00309232C15.3825 -0.0259691 14.4799 0.150117 13.6496 0.518259C12.8195 0.886401 12.0829 1.43709 11.495 2.12933C10.9076 1.4391 10.1726 0.889685 9.3443 0.521659C8.51603 0.153634 7.61565 -0.0235899 6.70968 0.00309232C4.86521 0.0752119 3.12434 0.87476 1.86775 2.22689C0.611154 3.57903 -0.0589131 5.37372 0.00407032 7.21852C0.00407032 10.8272 2.55316 13.0435 5.01729 15.1857C5.30019 15.4316 5.58608 15.6795 5.86999 15.9324L6.89662 16.8501C8.01626 17.9155 9.19007 18.9225 10.4134 19.8671C10.737 20.0766 11.1144 20.1881 11.5 20.1881C11.8855 20.1881 12.263 20.0766 12.5866 19.8671C13.8488 18.8937 15.0587 17.8543 16.2113 16.7531L17.1329 15.9294C17.4259 15.6696 17.7228 15.4106 18.0177 15.1558C20.3508 13.1314 22.9959 10.8373 22.9959 7.21852C23.0588 5.37372 22.3888 3.57903 21.1322 2.22689C19.8757 0.87476 18.1348 0.0752119 16.2902 0.00309232Z" fill="black"/>
</svg>
