<svg width="23" height="21" viewBox="0 0 23 21" fill="none" xmlns="http://www.w3.org/2000/svg">
<path d="M6.73973 0.794905C5.1052 0.859847 3.56265 1.56894 2.44895 2.7675C1.33437 3.96701 0.740009 5.55914 0.795875 7.19575L0.796337 7.20926V7.22278C0.796337 10.4176 3.02089 12.407 5.53932 14.5968M6.73973 0.794905L17.5074 14.5653C17.5072 14.5655 17.507 14.5656 17.5068 14.5658M6.73973 0.794905C7.52615 0.772313 8.30763 0.92644 9.02663 1.24596C9.74679 1.566 10.3859 2.04378 10.8966 2.64402L11.5006 3.35385L12.1039 2.64341C12.6149 2.04159 13.2551 1.56285 13.9768 1.24281C14.6976 0.923147 15.4812 0.770047 16.2692 0.794865M6.73973 0.794905L16.2692 0.794865M5.53932 14.5968L5.01948 15.1946L5.53932 14.5968ZM5.53932 14.5968C5.56276 14.6172 5.58622 14.6375 5.60977 14.658C5.86926 14.8836 6.13516 15.1147 6.39959 15.3503L6.40058 15.3512L7.42766 16.2694L7.43687 16.2776L7.44581 16.2861C8.53732 17.3249 9.68121 18.3072 10.873 19.2292C11.063 19.3458 11.2817 19.4077 11.505 19.4077C11.7284 19.4077 11.9472 19.3458 12.1372 19.229C13.3674 18.2786 14.547 17.2642 15.6711 16.1902L15.6806 16.1811L15.6904 16.1723L16.6125 15.3481L16.6146 15.3463C16.9107 15.0834 17.2103 14.8221 17.5068 14.5658M17.5068 14.5658C19.8953 12.4932 22.2137 10.4263 22.2137 7.22278V7.20926L22.2141 7.19575C22.27 5.55914 21.6756 3.96701 20.5611 2.7675C19.4471 1.56869 17.9042 0.859553 16.2692 0.794865M17.5068 14.5658L16.2692 0.794865" fill="black" stroke="black" stroke-width="1.58453"/>
</svg>
