<svg width="21" height="19" viewBox="0 0 21 19" fill="none" xmlns="http://www.w3.org/2000/svg">
<path d="M14.4633 0.912701C13.6812 0.887661 12.9035 1.03938 12.1881 1.35658C11.4728 1.67378 10.8382 2.14827 10.3316 2.74472C9.82547 2.15 9.19218 1.67661 8.47852 1.35951C7.76486 1.04241 6.98907 0.889711 6.20847 0.912701C4.61923 0.974841 3.11925 1.66375 2.03654 2.82878C0.953831 3.99381 0.376485 5.54016 0.430753 7.12969C0.430753 10.239 2.62711 12.1486 4.75026 13.9944C4.99402 14.2063 5.24035 14.4199 5.48497 14.6378L6.36954 15.4285C7.33425 16.3465 8.34563 17.2141 9.39966 18.028C9.67854 18.2085 10.0037 18.3046 10.3359 18.3046C10.6681 18.3046 10.9933 18.2085 11.2722 18.028C12.3597 17.1893 13.4022 16.2937 14.3953 15.3449L15.1894 14.6352C15.4418 14.4113 15.6976 14.1882 15.9517 13.9686C17.962 12.2244 20.2411 10.2477 20.2411 7.12969C20.2953 5.54016 19.718 3.99381 18.6353 2.82878C17.5526 1.66375 16.0526 0.974841 14.4633 0.912701Z" fill="#ED4956"/>
</svg>
