<svg width="23" height="21" viewBox="0 0 23 21" fill="none" xmlns="http://www.w3.org/2000/svg">
<path d="M5.53932 14.5968C3.02089 12.407 0.796337 10.4176 0.796337 7.22278V7.20926L0.795875 7.19575C0.740009 5.55914 1.33437 3.96701 2.44895 2.7675C3.56265 1.56894 5.1052 0.859847 6.73973 0.794905C7.52615 0.772313 8.30763 0.92644 9.02663 1.24596C9.74679 1.566 10.3859 2.04378 10.8966 2.64402L11.5006 3.35385L12.1039 2.64341C12.6149 2.04159 13.2551 1.56285 13.9768 1.24281C14.6976 0.923148 15.4812 0.770048 16.2692 0.794864C17.7737 0.85439 19.2003 1.45964 20.2864 2.49001C20.2 2.47139 20.1111 2.45597 20.0232 2.44579C19.8862 2.42992 19.6596 2.4146 19.4342 2.48191C19.3148 2.51757 19.1305 2.5957 18.9794 2.77385C18.8103 2.97314 18.7524 3.2149 18.7713 3.43359C18.7879 3.62699 18.8612 3.78195 18.9207 3.88349C18.9836 3.99083 19.0606 4.08796 19.1381 4.17394C19.7628 4.86638 20.1358 5.74313 20.2067 6.66338L19.031 7.0756L19.2364 7.18415C18.9725 7.27356 18.6907 7.36683 18.3954 7.46456C17.9564 7.60987 17.4877 7.76501 17.0038 7.93191C16.0436 8.26303 15.0509 8.63172 14.4288 8.98315C14.2689 9.07346 14.1082 9.17646 13.9704 9.29306C13.8519 9.39331 13.6752 9.5652 13.5797 9.81475C13.5274 9.84389 13.4765 9.87559 13.4273 9.90956C13.0548 10.1663 12.766 10.5516 12.5389 10.9417C12.0806 11.7292 11.7222 12.8066 11.4512 13.8407C11.1763 14.8896 10.9756 15.957 10.8522 16.7626C10.7945 17.139 10.7527 17.465 10.7281 17.7105C10.7078 17.7413 10.6889 17.7749 10.6715 17.8114C10.493 18.1868 10.671 18.5029 10.7077 18.5644C10.8104 18.737 10.9527 18.8276 10.9909 18.8518L10.991 18.8519C11.0636 18.8981 11.1446 18.9365 11.2324 18.9668L11.5044 19.143L11.6567 19.0446C11.7451 19.0487 11.8367 19.0461 11.9303 19.0366C12.1405 19.0153 12.3665 18.9596 12.6081 18.8601C12.452 18.9842 12.295 19.1071 12.1372 19.229C11.9472 19.3458 11.7284 19.4077 11.505 19.4077C11.2817 19.4077 11.063 19.3458 10.873 19.2292C9.68121 18.3072 8.53732 17.3249 7.44581 16.2861L7.43687 16.2776L7.42767 16.2694L6.40058 15.3512L6.39959 15.3503C6.13513 15.1147 5.8692 14.8835 5.6097 14.658C5.58617 14.6375 5.56274 14.6171 5.53932 14.5968ZM5.53932 14.5968L5.01948 15.1946M5.53932 14.5968L5.01948 15.1946M5.01948 15.1946C5.04279 15.2149 5.06612 15.2352 5.08947 15.2555C5.34961 15.4816 5.61192 15.7096 5.87255 15.9418L10.9458 1.55993C10.4727 1.13289 9.93381 0.782132 9.34837 0.521968C8.51974 0.153726 7.61897 -0.0235987 6.71261 0.00309434C4.86734 0.0752631 3.1257 0.875282 1.86856 2.22821C0.611421 3.58114 -0.0589386 5.37689 0.00407207 7.22278C0.00407207 10.8336 2.55428 13.0511 5.01948 15.1946ZM14.9852 10.5103C14.9875 10.5082 14.9903 10.5057 14.9939 10.5027C15.0266 10.475 15.0935 10.4276 15.2081 10.3628C15.6842 10.0939 16.5399 9.768 17.5204 9.42986C17.9514 9.2812 18.4172 9.12675 18.8645 8.97842C18.9595 8.94695 19.0535 8.91575 19.1463 8.88494C18.966 9.19981 18.7953 9.49431 18.6289 9.77315C17.7937 10.6574 16.8541 11.6399 15.9256 12.603C14.7025 13.8716 13.5008 15.1042 12.5848 16.0318C12.6913 15.4677 12.8248 14.8497 12.984 14.2424C13.2456 13.2442 13.561 12.3358 13.9084 11.7387C14.0843 11.4365 14.2313 11.2798 14.3265 11.2142C14.3675 11.186 14.3823 11.1861 14.3731 11.1877C14.3693 11.1883 14.366 11.1885 14.3635 11.1885L14.6255 10.4424L14.8853 9.70304C14.9033 9.71689 14.9261 9.73705 14.9505 9.76492C15.002 9.82359 15.0608 9.91759 15.0861 10.0452C15.1114 10.1736 15.093 10.2865 15.0646 10.3672C15.0368 10.4463 15.0003 10.4934 14.9852 10.5103ZM14.9852 10.5103C14.98 10.515 14.9779 10.5173 14.9781 10.5174C14.9783 10.5174 14.9809 10.5151 14.9852 10.5103ZM15.6711 16.1902C15.5831 16.2742 15.4949 16.3578 15.4063 16.4411C15.4115 16.276 15.4149 16.084 15.4165 15.8622C15.5701 15.7282 15.6785 15.6365 15.7537 15.5751C15.8062 15.5524 15.8652 15.5227 15.8896 15.5079C15.9098 15.4946 15.9431 15.4706 15.9565 15.4602C16.0005 15.4253 16.0313 15.3927 16.0343 15.3895C16.0608 15.3621 16.0805 15.3373 16.084 15.333L16.0844 15.3325L16.0852 15.3316C16.0873 15.3289 16.0931 15.3219 16.1012 15.3111C16.1291 15.278 16.2032 15.192 16.3678 15.0091C16.5805 14.8193 16.7807 14.6343 16.9701 14.4527C17.0707 14.3818 17.1682 14.3229 17.2726 14.2603C17.2831 14.254 17.2937 14.2476 17.3043 14.2413C17.632 14.045 18.0217 13.8116 18.5802 13.2639L18.6144 13.2304L18.6444 13.1929C19.009 12.7368 20.146 11.2135 21.0084 9.86129C21.2021 9.55754 21.3907 9.24903 21.5562 8.95482C21.7662 8.72439 21.9553 8.51384 22.1173 8.32918C21.6561 10.9225 19.6088 12.7418 17.5071 14.5655C17.2105 14.822 16.9108 15.0833 16.6146 15.3463L16.6125 15.3481L15.6904 16.1723L15.6806 16.1811L15.6711 16.1902ZM15.8736 15.482C15.8735 15.482 15.8722 15.483 15.8696 15.4846C15.8724 15.4827 15.8737 15.4819 15.8736 15.482ZM22.0515 5.55888C22.0175 5.52081 21.9863 5.48569 21.9574 5.45274C21.9732 5.42182 21.9874 5.38967 22 5.35629C22.0183 5.4235 22.0355 5.49103 22.0515 5.55888ZM14.8529 9.68117C14.8485 9.67917 14.8466 9.67807 14.8467 9.67802C14.8468 9.67797 14.849 9.67897 14.8529 9.68117Z" fill="black" stroke="black" stroke-width="1.58453"/>
</svg>
